<?xml version="1.0" standalone="no"?><!DOCTYPE svg PUBLIC "-//W3C//DTD SVG 1.1//EN" "http://www.w3.org/Graphics/SVG/1.1/DTD/svg11.dtd"><svg width="25" height="25" viewBox="0 0 25 25" version="1.1" xmlns="http://www.w3.org/2000/svg" xmlns:xlink="http://www.w3.org/1999/xlink"><defs><style type="text/css"><![CDATA[
@font-face { font-family: ifont; src: url(http://at.alicdn.com/t/font_1442373896_4754455.eot?#iefix) format(embedded-opentype), url(http://at.alicdn.com/t/font_1442373896_4754455.woff) format(woff), url(http://at.alicdn.com/t/font_1442373896_4754455.ttf) format(truetype), url(http://at.alicdn.com/t/font_1442373896_4754455.svg#ifont) format(svg); }

]]></style></defs><g class="transform-group"><g transform="scale(0.0244140625, 0.0244140625)"><path d="M767.862 351.171c0 69.449-25.585 135.241-69.449 182.757-91.379 40.207-153.517 131.586-153.517 237.586 0 69.449 25.585 131.586 69.449 179.102l-566.551 0c21.932-168.138 138.896-303.378 292.414-354.55-84.069-47.517-142.553-138.896-142.553-244.896 0-157.172 127.931-285.103 285.103-285.103 157.172 0 285.103 127.931 285.103 285.103zM793.447 581.449c-102.345 0-182.757 84.069-182.757 186.414s84.069 186.414 182.757 186.414c102.345 0 182.757-84.069 182.757-186.414s-80.414-186.414-182.757-186.414zM793.447 866.55l-18.276 21.932-95.034-102.345 32.897-32.897 58.483 62.138 113.31-142.553 36.553 29.241-127.931 164.482z" fill="#909293"></path></g></g></svg>