<?xml version="1.0" standalone="no"?><!DOCTYPE svg PUBLIC "-//W3C//DTD SVG 1.1//EN" "http://www.w3.org/Graphics/SVG/1.1/DTD/svg11.dtd"><svg width="84.75" height="64" viewBox="0 0 84.75 64" version="1.1" xmlns="http://www.w3.org/2000/svg" xmlns:xlink="http://www.w3.org/1999/xlink"><defs><style type="text/css"><![CDATA[
@font-face { font-family: ifont; src: url(http://at.alicdn.com/t/font_1442373896_4754455.eot?#iefix) format(embedded-opentype), url(http://at.alicdn.com/t/font_1442373896_4754455.woff) format(woff), url(http://at.alicdn.com/t/font_1442373896_4754455.ttf) format(truetype), url(http://at.alicdn.com/t/font_1442373896_4754455.svg#ifont) format(svg); }

]]></style></defs><g class="transform-group"><g transform="scale(0.0625, 0.0625)"><path d="M216.865475 222.645343c0 15.292568 6.261524 30.464722 17.098777 41.301976 10.837253 10.837253 26.009407 17.098777 41.301976 17.098777 15.292568 0 30.464722-6.261524 41.301976-17.098777 10.837253-10.837253 17.098777-26.009407 17.098777-41.301976 0-15.292568-6.261524-30.464722-17.098777-41.301976-10.837253-10.837253-26.009407-17.098777-41.301976-17.098777-15.292568 0-30.464722 6.261524-41.301976 17.098777C223.247413 192.180621 216.865475 207.352775 216.865475 222.645343L216.865475 222.645343zM216.865475 222.645343M209.520226 512.361242c0 15.292568 6.261524 30.585136 17.098777 41.422389 10.837253 10.837253 26.009407 17.098777 41.422389 17.098777 15.292568 0 30.585136-6.261524 41.422389-17.098777 10.837253-10.837253 17.098777-26.009407 17.098777-41.422389 0-15.292568-6.261524-30.585136-17.098777-41.422389-10.837253-10.837253-26.009407-17.098777-41.422389-17.098777-15.292568 0-30.585136 6.261524-41.422389 17.098777C215.78175 481.776105 209.520226 496.94826 209.520226 512.361242L209.520226 512.361242zM209.520226 512.361242M209.520226 803.401693c0 15.292568 6.261524 30.585136 17.098777 41.422389 10.837253 10.837253 26.009407 17.098777 41.422389 17.098777 15.292568 0 30.585136-6.261524 41.422389-17.098777 10.837253-10.837253 17.098777-26.009407 17.098777-41.422389 0-15.292568-6.261524-30.585136-17.098777-41.422389-10.837253-10.837253-26.009407-17.098777-41.422389-17.098777-15.292568 0-30.585136 6.261524-41.422389 17.098777C215.78175 772.936971 209.520226 788.109125 209.520226 803.401693L209.520226 803.401693zM209.520226 803.401693M1145.377234 219.996237c0 30.825964-22.878645 55.751646-51.175917 55.751646L487.555974 275.747883c-28.297272 0-51.175917-24.925682-51.175917-55.751646l0 0c0-30.825964 22.878645-55.751646 51.175917-55.751646l606.645343 0C1122.498589 164.244591 1145.377234 189.170273 1145.377234 219.996237L1145.377234 219.996237 1145.377234 219.996237zM1145.377234 219.996237M1145.377234 509.712135c0 30.70555-22.878645 55.751646-51.175917 55.751646L487.555974 565.463782c-28.297272 0-51.175917-24.925682-51.175917-55.751646l0 0c0-30.825964 22.878645-55.751646 51.175917-55.751646l606.645343 0C1122.498589 453.840075 1145.377234 478.886171 1145.377234 509.712135L1145.377234 509.712135 1145.377234 509.712135zM1145.377234 509.712135M1145.377234 800.632173c0 30.825964-22.878645 55.751646-51.175917 55.751646L487.555974 856.383819c-28.297272 0-51.175917-24.925682-51.175917-55.751646l0 0c0-30.70555 22.878645-55.631232 51.175917-55.631232l606.645343 0C1122.498589 744.880527 1145.377234 769.926623 1145.377234 800.632173L1145.377234 800.632173 1145.377234 800.632173zM1145.377234 800.632173" fill="#11CD6E"></path></g></g></svg>