<?xml version="1.0" standalone="no"?><!DOCTYPE svg PUBLIC "-//W3C//DTD SVG 1.1//EN" "http://www.w3.org/Graphics/SVG/1.1/DTD/svg11.dtd"><svg width="27" height="27" viewBox="0 0 27 27" version="1.1" xmlns="http://www.w3.org/2000/svg" xmlns:xlink="http://www.w3.org/1999/xlink"><defs><style type="text/css"><![CDATA[
@font-face { font-family: ifont; src: url(http://at.alicdn.com/t/font_1442373896_4754455.eot?#iefix) format(embedded-opentype), url(http://at.alicdn.com/t/font_1442373896_4754455.woff) format(woff), url(http://at.alicdn.com/t/font_1442373896_4754455.ttf) format(truetype), url(http://at.alicdn.com/t/font_1442373896_4754455.svg#ifont) format(svg); }

]]></style></defs><g class="transform-group"><g transform="scale(0.0263671875, 0.0263671875)"><path d="M511.9 376c-73.9 0-133.7 58.2-133.7 130s59.8 130 133.7 130c73.8 0 133.7-58.2 133.7-130S585.8 376 511.9 376zM511.9 598.8c-52.7 0-95.4-41.6-95.4-92.9s42.8-92.9 95.4-92.9c52.7 0 95.5 41.6 95.5 92.9S564.7 598.8 511.9 598.8zM511.9 42.5c-259.3 0-469.4 210.1-469.4 469.4s210.2 469.4 469.4 469.4 469.4-210.1 469.4-469.4S771.2 42.5 511.9 42.5zM779.3 626.7c0 41-34.3 74.3-76.4 74.3L321 701c-42.2 0-76.3-33.2-76.3-74.3l0-223c0-41 34.2-74.3 76.3-74.3l53.4 0c11.4-27.2 38.7-46.5 70.8-46.5l133.7 0c32 0 59.4 19.2 70.8 46.5L703 329.4c42.2 0 76.4 33.2 76.4 74.3l0 223L779.3 626.7z" fill="#11cd6e"></path></g></g></svg>