<?xml version="1.0" standalone="no"?><!DOCTYPE svg PUBLIC "-//W3C//DTD SVG 1.1//EN" "http://www.w3.org/Graphics/SVG/1.1/DTD/svg11.dtd"><svg width="18" height="18" viewBox="0 0 18 18" version="1.1" xmlns="http://www.w3.org/2000/svg" xmlns:xlink="http://www.w3.org/1999/xlink"><defs><style type="text/css"><![CDATA[
@font-face { font-family: ifont; src: url(http://at.alicdn.com/t/font_1442373896_4754455.eot?#iefix) format(embedded-opentype), url(http://at.alicdn.com/t/font_1442373896_4754455.woff) format(woff), url(http://at.alicdn.com/t/font_1442373896_4754455.ttf) format(truetype), url(http://at.alicdn.com/t/font_1442373896_4754455.svg#ifont) format(svg); }

]]></style></defs><g class="transform-group"><g transform="scale(0.017578125, 0.017578125)"><path d="M685.466 414.126 360.722 414.126 574.562 450.778 344.884 637.972 693.384 637.972 487.462 593.402ZM516.026 46C257.784 46 48.412 255.372 48.412 513.614c0 258.24 209.372 467.588 467.614 467.588 258.24 0 467.562-209.348 467.562-467.588C983.588 255.372 774.266 46 516.026 46zM820.026 429.864l-118.82 100.726 39.492 253.578c-7.918 7.894-8.112 7.894-16.078 7.894l-206.31-126.79L311.56 792.062c-15.836 0-17.464 0-17.464-7.894l28.442-253.578-125.332-110.926L154.36 389.252l-12.096 0 0-1.312 12.096 1.312 111.292 0 134.658 0 31.698-56.472 79.206-167.376c7.894 0 7.894 0 15.862 0l87.1 167.376 31.698 56.472 134.612 0 79.23 0c7.918 0 7.918-4.638 7.918 3.304L820.026 429.864z" fill="#fff"></path></g></g></svg>